<?xml version="1.0" encoding="UTF-8" standalone="no"?>
<!DOCTYPE svg PUBLIC "-//W3C//DTD SVG 1.1//EN" "http://www.w3.org/Graphics/SVG/1.1/DTD/svg11.dtd">
<svg version="1.1" xmlns="http://www.w3.org/2000/svg" xmlns:xlink="http://www.w3.org/1999/xlink" preserveAspectRatio="xMidYMid meet" viewBox="0 0 377.953 264.567" width="377.95" height="264.57"><defs><path d="M347.92 -60.4C347.92 -60.4 347.92 -60.4 347.92 -60.4C347.92 239.6 347.92 406.27 347.92 439.6C347.92 439.6 347.92 439.6 347.92 439.6C47.92 439.6 -118.75 439.6 -152.08 439.6C-152.08 439.6 -152.08 439.6 -152.08 439.6C-152.08 139.6 -152.08 -27.06 -152.08 -60.4C-152.08 -60.4 -152.08 -60.4 -152.08 -60.4C147.92 -60.4 314.59 -60.4 347.92 -60.4Z" id="b7eeipxxI"></path><path d="M350.59 29.18C357.32 29.18 360.69 32.55 360.69 39.28C360.69 152 360.69 214.62 360.69 227.15C360.69 233.88 357.32 237.25 350.59 237.25C159.07 237.25 52.68 237.25 31.4 237.25C24.66 237.25 21.3 233.88 21.3 227.15C21.3 114.43 21.3 51.8 21.3 39.28C21.3 32.55 24.66 29.18 31.4 29.18C222.91 29.18 329.31 29.18 350.59 29.18Z" id="d2DOqqF3Aj"></path><path d="M350.59 25.18C357.32 25.18 360.69 28.55 360.69 35.28C360.69 148 360.69 210.62 360.69 223.15C360.69 229.88 357.32 233.25 350.59 233.25C159.07 233.25 52.68 233.25 31.4 233.25C24.66 233.25 21.3 229.88 21.3 223.15C21.3 110.43 21.3 47.8 21.3 35.28C21.3 28.55 24.66 25.18 31.4 25.18C222.91 25.18 329.31 25.18 350.59 25.18Z" id="cRi940W7"></path><path d="M360.69 57.98C360.69 57.98 360.69 57.98 360.69 57.98C360.69 81.92 360.69 95.22 360.69 97.88C360.69 97.88 360.69 97.88 360.69 97.88C157.05 97.88 43.92 97.88 21.3 97.88C21.3 97.88 21.3 97.88 21.3 97.88C21.3 73.94 21.3 60.64 21.3 57.98C21.3 57.98 21.3 57.98 21.3 57.98C224.93 57.98 338.06 57.98 360.69 57.98Z" id="hjJT5AKa9"></path><path d="M60.31 97.88L35.21 57.98L46.65 57.98L71.75 97.88L60.31 97.88Z" id="bjGehGNOe"></path><linearGradient id="gradientb7Ya5BeOL" gradientUnits="userSpaceOnUse" x1="64.92" y1="113.5" x2="50.99" y2="14.21"><stop style="stop-color: #ffffff;stop-opacity: 0.11616" offset="0%"></stop><stop style="stop-color: #ffffff;stop-opacity: 0.59596" offset="100%"></stop></linearGradient><path d="M360.69 117.83C360.69 117.83 360.69 117.83 360.69 117.83C360.69 166.01 360.69 192.78 360.69 198.13C360.69 198.13 360.69 198.13 360.69 198.13C157.05 198.13 43.92 198.13 21.3 198.13C21.3 198.13 21.3 198.13 21.3 198.13C21.3 149.95 21.3 123.18 21.3 117.83C21.3 117.83 21.3 117.83 21.3 117.83C224.93 117.83 338.06 117.83 360.69 117.83Z" id="cywWKAX4j"></path></defs><g><g><g><use xlink:href="#b7eeipxxI" opacity="1" fill="#000000" fill-opacity="0"></use><g><use xlink:href="#b7eeipxxI" opacity="1" fill-opacity="0" stroke="#000000" stroke-width="1" stroke-opacity="0"></use></g></g><g><use xlink:href="#d2DOqqF3Aj" opacity="1" fill="#e64242" fill-opacity="1"></use><g><use xlink:href="#d2DOqqF3Aj" opacity="1" fill-opacity="0" stroke="#000000" stroke-width="1" stroke-opacity="0"></use></g></g><g><use xlink:href="#cRi940W7" opacity="1" fill="#ff5d5d" fill-opacity="1"></use><g><use xlink:href="#cRi940W7" opacity="1" fill-opacity="0" stroke="#000000" stroke-width="1" stroke-opacity="0"></use></g></g><g><use xlink:href="#hjJT5AKa9" opacity="1" fill="#424242" fill-opacity="1"></use><g><use xlink:href="#hjJT5AKa9" opacity="1" fill-opacity="0" stroke="#000000" stroke-width="1" stroke-opacity="0"></use></g></g><g><use xlink:href="#bjGehGNOe" opacity="1" fill="url(#gradientb7Ya5BeOL)"></use><g><use xlink:href="#bjGehGNOe" opacity="1" fill-opacity="0" stroke="#000000" stroke-width="1" stroke-opacity="0"></use></g></g><g><use xlink:href="#cywWKAX4j" opacity="1" fill="#ffffff" fill-opacity="0.16"></use><g><use xlink:href="#cywWKAX4j" opacity="1" fill-opacity="0" stroke="#000000" stroke-width="1" stroke-opacity="0"></use></g></g></g></g></svg>